<svg width="128" height="128" viewBox="0 0 128 128" fill="none" xmlns="http://www.w3.org/2000/svg">
<g clip-path="url(#clip0_1122_19)">
<rect width="128" height="128" fill="#202329"/>
<path d="M29.0455 111V17.9091H67.8636C74.8333 17.9091 80.6667 18.8939 85.3636 20.8636C90.0909 22.8333 93.6364 25.5909 96 29.1364C98.3939 32.6818 99.5909 36.7879 99.5909 41.4545C99.5909 45 98.8485 48.1667 97.3636 50.9545C95.8788 53.7121 93.8333 56 91.2273 57.8182C88.6212 59.6364 85.6061 60.9091 82.1818 61.6364V62.5455C85.9394 62.7273 89.4091 63.7424 92.5909 65.5909C95.803 67.4394 98.3788 70.0152 100.318 73.3182C102.258 76.5909 103.227 80.4697 103.227 84.9545C103.227 89.9545 101.955 94.4242 99.4091 98.3636C96.8636 102.273 93.1818 105.364 88.3636 107.636C83.5455 109.879 77.697 111 70.8182 111H29.0455ZM51.5455 92.8636H65.4545C70.3333 92.8636 73.9242 91.9394 76.2273 90.0909C78.5606 88.2424 79.7273 85.6667 79.7273 82.3636C79.7273 79.9697 79.1667 77.9091 78.0455 76.1818C76.9242 74.4242 75.3333 73.0758 73.2727 72.1364C71.2121 71.1667 68.7424 70.6818 65.8636 70.6818H51.5455V92.8636ZM51.5455 56.1818H64C66.4545 56.1818 68.6364 55.7727 70.5455 54.9545C72.4545 54.1364 73.9394 52.9545 75 51.4091C76.0909 49.8636 76.6364 48 76.6364 45.8182C76.6364 42.697 75.5303 40.2424 73.3182 38.4545C71.1061 36.6667 68.1212 35.7727 64.3636 35.7727H51.5455V56.1818Z" fill="#00BEBD"/>
</g>
<defs>
<clipPath id="clip0_1122_19">
<rect width="128" height="128" fill="white"/>
</clipPath>
</defs>
</svg>
